<svg width="50" height="50" viewBox="0 0 50 50" fill="none" xmlns="http://www.w3.org/2000/svg">
<circle cx="25" cy="25" r="25" fill="#EE0000"/>
<path fill-rule="evenodd" clip-rule="evenodd" d="M29.436 14C33.063 14 35.5 16.546 35.5 20.335V29.165C35.5 32.954 33.063 35.5 29.436 35.5H20.064C16.437 35.5 14 32.954 14 29.165V20.335C14 16.546 16.437 14 20.064 14H29.436ZM29.436 15.5H20.064C17.292 15.5 15.5 17.397 15.5 20.335V29.165C15.5 32.103 17.292 34 20.064 34H29.436C32.209 34 34 32.103 34 29.165V20.335C34 17.397 32.209 15.5 29.436 15.5ZM24.75 20.3273C25.164 20.3273 25.5 20.6633 25.5 21.0773V23.99L28.4165 23.9902C28.8305 23.9902 29.1665 24.3262 29.1665 24.7402C29.1665 25.1542 28.8305 25.4902 28.4165 25.4902L25.5 25.49V28.4043C25.5 28.8183 25.164 29.1543 24.75 29.1543C24.336 29.1543 24 28.8183 24 28.4043V25.49L21.0835 25.4902C20.6685 25.4902 20.3335 25.1542 20.3335 24.7402C20.3335 24.3262 20.6685 23.9902 21.0835 23.9902L24 23.99V21.0773C24 20.6633 24.336 20.3273 24.75 20.3273Z" fill="#FEFEFE"/>
</svg>
