<svg width="18" height="18" viewBox="0 0 18 18" fill="none" xmlns="http://www.w3.org/2000/svg">
<path fill-rule="evenodd" clip-rule="evenodd" d="M10.4807 1.50031C10.5129 1.50031 10.5445 1.50302 10.5752 1.50823L10.6775 1.50878C10.8305 1.50878 10.9767 1.57103 11.0832 1.68128L14.8827 5.64053C14.9825 5.74478 15.0387 5.88503 15.0387 6.02978V13.0048C15.0417 14.8565 13.5372 16.3798 11.6855 16.3993L5.54975 16.4C3.695 16.3678 2.21899 14.84 2.25049 12.995V4.86803C2.29324 3.00728 3.83 1.50878 5.67725 1.50878L10.3862 1.50823C10.4169 1.50302 10.4485 1.50031 10.4807 1.50031ZM9.918 2.63356L5.67949 2.63378C4.436 2.63378 3.40474 3.64028 3.37549 4.88153V13.0048C3.35374 14.24 4.334 15.254 5.56025 15.275L5.6705 15.2743H11.6795C12.911 15.2608 13.9152 14.243 13.9137 13.0055L13.9132 6.73756L12.4074 6.73831C11.0342 6.73455 9.91819 5.61556 9.91819 4.24455L9.918 2.63356ZM8.50812 7.28573C8.81862 7.28573 9.07062 7.53773 9.07062 7.84823L9.0705 9.12256L10.345 9.12308C10.6555 9.12308 10.9075 9.37508 10.9075 9.68558C10.9075 9.99608 10.6555 10.2481 10.345 10.2481L9.0705 10.2476L9.07062 11.5232C9.07062 11.8337 8.81862 12.0857 8.50812 12.0857C8.19762 12.0857 7.94562 11.8337 7.94562 11.5232L7.9455 10.2476L6.67077 10.2481C6.36027 10.2481 6.10827 9.99608 6.10827 9.68558C6.10827 9.37508 6.36027 9.12308 6.67077 9.12308L7.9455 9.12256L7.94562 7.84823C7.94562 7.53773 8.19762 7.28573 8.50812 7.28573ZM11.043 3.26431L11.0432 4.24455C11.0432 4.99756 11.6559 5.61105 12.4089 5.61331L13.296 5.61256L11.043 3.26431Z" fill="#111111"/>
</svg>
